<svg xmlns="http://www.w3.org/2000/svg" xmlns:xlink="http://www.w3.org/1999/xlink" width="500" zoomAndPan="magnify" viewBox="0 0 375 374.999991" height="500" preserveAspectRatio="xMidYMid meet" version="1.0"><defs><clipPath id="6537da525d"><path d="M 40.832031 65.363281 L 333.953125 65.363281 L 333.953125 309.863281 L 40.832031 309.863281 Z M 40.832031 65.363281 " clip-rule="nonzero"/></clipPath></defs><g clip-path="url(#6537da525d)"><path fill="#f95738" d="M 93.019531 120.699219 L 59.941406 120.699219 C 63.695312 114.824219 67.976562 109.355469 72.902344 104.597656 C 85.628906 91.84375 101.875 82.730469 119.996094 78.851562 C 112.726562 84.082031 106.214844 91.84375 100.9375 101.890625 C 97.945312 107.417969 95.246094 113.765625 93.019531 120.699219 Z M 135.597656 120.699219 L 97.828125 120.699219 C 99.761719 114.585938 102.226562 109.003906 104.984375 103.890625 C 113.429688 88.140625 124.867188 78.03125 137.300781 76.972656 L 137.300781 117.585938 C 136.65625 118.585938 136.125 119.640625 135.597656 120.699219 Z M 146.390625 120.699219 L 141.875 120.699219 L 141.875 76.972656 C 149.382812 77.617188 156.652344 81.496094 163.046875 88.140625 C 156.949219 92.957031 151.375 98.425781 146.449219 104.539062 L 146.449219 120.699219 Z M 190.789062 120.699219 L 186.097656 120.699219 C 183.867188 113.824219 181.285156 107.417969 178.179688 101.832031 C 172.839844 91.84375 166.390625 84.023438 159.117188 78.792969 C 163.28125 79.675781 167.269531 80.851562 171.199219 82.320312 C 170.554688 82.730469 169.910156 83.085938 169.382812 83.496094 C 173.132812 86.082031 175.480469 88.84375 175.480469 88.84375 L 175.480469 88.960938 L 175.597656 88.960938 L 175.597656 89.078125 C 178.0625 92.488281 180.289062 96.132812 182.226562 99.601562 C 185.097656 104.949219 187.445312 110.414062 189.378906 116.117188 C 189.734375 116.878906 190.261719 118.703125 190.789062 120.699219 Z M 187.503906 125.226562 L 221.929688 125.226562 C 222.695312 126.636719 223.515625 128.222656 224.277344 129.75 L 193.367188 129.75 C 196.242188 141.09375 197.648438 152.792969 198.0625 164.488281 C 198.179688 165.898438 198.179688 167.484375 198.179688 169.011719 L 193.664062 169.011719 C 193.484375 153.203125 191.316406 138.390625 187.503906 125.226562 Z M 141.816406 125.226562 L 182.636719 125.226562 C 183.164062 126.636719 183.515625 128.222656 183.925781 129.75 L 146.273438 129.75 L 146.273438 169.011719 L 141.757812 169.011719 L 141.757812 125.226562 Z M 96.421875 125.226562 L 137.359375 125.226562 L 137.359375 129.75 L 131.257812 129.75 C 126.039062 141.859375 123.105469 155.140625 122.8125 169.011719 L 90.027344 169.011719 C 90.144531 153.085938 92.492188 138.214844 96.421875 125.226562 Z M 57.183594 125.226562 L 91.609375 125.226562 C 87.859375 138.390625 85.628906 153.203125 85.511719 169.070312 L 45.21875 169.070312 C 45.628906 153.085938 49.910156 138.214844 57.183594 125.226562 Z M 91.609375 217.441406 L 57.183594 217.441406 C 49.910156 204.277344 45.628906 189.464844 45.21875 173.597656 L 85.453125 173.597656 C 85.628906 189.347656 87.800781 204.335938 91.609375 217.441406 Z M 133.253906 217.441406 L 96.421875 217.441406 C 92.550781 204.277344 90.203125 189.464844 90.085938 173.597656 L 137.359375 173.597656 L 137.359375 178.121094 L 122.929688 178.121094 C 123.808594 192.109375 127.445312 205.394531 133.253906 217.441406 Z M 146.390625 217.441406 L 141.875 217.441406 L 141.875 173.597656 L 189.085938 173.597656 C 189.085938 175.007812 189.085938 176.59375 188.96875 178.121094 L 146.390625 178.121094 Z M 192.195312 217.441406 L 187.503906 217.441406 C 191.257812 204.277344 193.484375 189.347656 193.601562 173.597656 L 233.835938 173.597656 C 233.71875 175.007812 233.71875 176.59375 233.601562 178.121094 L 198.0625 178.121094 C 197.648438 189.703125 196.242188 201.398438 193.367188 212.859375 C 193.074219 213.800781 192.722656 215.503906 192.195312 217.441406 Z M 186.097656 222.027344 L 219.234375 222.027344 C 218.179688 223.4375 217.179688 225.023438 216.125 226.554688 L 189.378906 226.554688 C 187.445312 232.136719 185.097656 237.601562 182.226562 242.949219 C 180.289062 246.59375 177.945312 250.355469 175.480469 253.765625 C 173.429688 255.824219 171.199219 257.527344 168.96875 258.996094 C 169.734375 259.40625 170.378906 259.878906 171.199219 260.40625 C 167.328125 261.699219 163.28125 262.875 159.117188 263.816406 C 166.390625 258.585938 172.898438 250.828125 178.179688 240.777344 C 181.285156 235.132812 183.867188 228.785156 186.097656 222.027344 Z M 141.816406 222.027344 L 181.226562 222.027344 C 180.699219 223.4375 180.171875 225.023438 179.644531 226.554688 L 146.273438 226.554688 L 146.273438 238.015625 C 151.199219 244.125 156.769531 249.59375 162.871094 254.410156 C 156.535156 261.054688 149.265625 265.050781 141.699219 265.753906 L 141.699219 222.027344 Z M 97.828125 222.027344 L 137.300781 222.027344 L 137.300781 265.753906 C 124.867188 264.578125 113.429688 254.410156 104.984375 238.71875 C 102.226562 233.605469 99.761719 228.023438 97.828125 222.027344 Z M 59.941406 222.027344 L 93.019531 222.027344 C 95.246094 228.785156 97.945312 235.191406 100.9375 240.777344 C 106.273438 250.769531 112.726562 258.585938 119.996094 263.816406 C 101.816406 259.9375 85.570312 250.828125 72.902344 238.191406 C 67.976562 233.195312 63.695312 227.847656 59.941406 222.027344 Z M 139.644531 72.269531 C 112.257812 72.269531 87.5625 83.320312 69.675781 101.304688 C 51.789062 119.289062 40.703125 143.976562 40.703125 171.304688 C 40.703125 198.636719 51.730469 223.496094 69.675781 241.304688 C 87.5625 259.230469 112.257812 270.339844 139.644531 270.339844 C 166.917969 270.339844 191.550781 259.289062 209.496094 241.304688 C 227.386719 223.496094 238.472656 198.636719 238.472656 171.304688 C 238.472656 143.976562 227.445312 119.289062 209.496094 101.304688 C 191.550781 83.320312 166.859375 72.269531 139.644531 72.269531 Z M 219.175781 276.804688 L 219.175781 309.835938 L 268.792969 269.105469 C 308.148438 252.824219 333.953125 214.210938 333.953125 171.304688 C 333.953125 112.882812 286.679688 65.394531 228.265625 65.394531 C 211.375 65.394531 195.421875 69.449219 181.285156 76.441406 C 192.839844 81.675781 203.457031 88.785156 212.722656 98.011719 C 232.429688 117.761719 242.988281 142.742188 242.988281 171.246094 C 242.988281 198.8125 232.078125 224.964844 212.722656 244.480469 C 203.515625 253.707031 192.839844 260.996094 181.285156 266.050781 C 192.839844 271.867188 205.683594 275.628906 219.175781 276.804688 Z M 219.175781 276.804688 " fill-opacity="1" fill-rule="nonzero"/></g></svg>