<svg xmlns="http://www.w3.org/2000/svg" xmlns:xlink="http://www.w3.org/1999/xlink" width="500" zoomAndPan="magnify" viewBox="0 0 375 374.999991" height="500" preserveAspectRatio="xMidYMid meet" version="1.0"><defs><g/><clipPath id="5c88bac5f8"><path d="M 127.664062 104.875 L 247.609375 104.875 L 247.609375 204.625 L 127.664062 204.625 Z M 127.664062 104.875 " clip-rule="nonzero"/></clipPath></defs><g clip-path="url(#5c88bac5f8)"><path fill="#f95738" d="M 149.019531 127.449219 L 135.480469 127.449219 C 137.019531 125.050781 138.769531 122.820312 140.785156 120.878906 C 145.996094 115.675781 152.640625 111.960938 160.058594 110.378906 C 157.082031 112.511719 154.417969 115.675781 152.257812 119.777344 C 151.035156 122.03125 149.929688 124.621094 149.019531 127.449219 Z M 166.441406 127.449219 L 150.988281 127.449219 C 151.777344 124.957031 152.785156 122.679688 153.914062 120.59375 C 157.371094 114.167969 162.050781 110.042969 167.136719 109.609375 L 167.136719 126.179688 C 166.875 126.585938 166.660156 127.019531 166.441406 127.449219 Z M 170.859375 127.449219 L 169.011719 127.449219 L 169.011719 109.609375 C 172.082031 109.875 175.058594 111.457031 177.675781 114.167969 C 175.179688 116.132812 172.898438 118.363281 170.882812 120.855469 L 170.882812 127.449219 Z M 189.027344 127.449219 L 187.105469 127.449219 C 186.195312 124.644531 185.136719 122.03125 183.867188 119.753906 C 181.683594 115.675781 179.042969 112.488281 176.066406 110.355469 C 177.769531 110.714844 179.402344 111.191406 181.011719 111.792969 C 180.746094 111.960938 180.480469 112.105469 180.265625 112.273438 C 181.800781 113.328125 182.761719 114.453125 182.761719 114.453125 L 182.761719 114.5 L 182.808594 114.5 L 182.808594 114.550781 C 183.820312 115.941406 184.730469 117.425781 185.523438 118.84375 C 186.699219 121.023438 187.660156 123.253906 188.449219 125.578125 C 188.59375 125.890625 188.808594 126.632812 189.027344 127.449219 Z M 187.683594 129.296875 L 201.769531 129.296875 C 202.082031 129.871094 202.417969 130.519531 202.730469 131.140625 L 190.082031 131.140625 C 191.257812 135.769531 191.835938 140.542969 192.003906 145.3125 C 192.050781 145.890625 192.050781 146.535156 192.050781 147.160156 L 190.203125 147.160156 C 190.128906 140.710938 189.242188 134.667969 187.683594 129.296875 Z M 168.988281 129.296875 L 185.691406 129.296875 C 185.90625 129.871094 186.050781 130.519531 186.21875 131.140625 L 170.808594 131.140625 L 170.808594 147.160156 L 168.960938 147.160156 L 168.960938 129.296875 Z M 150.410156 129.296875 L 167.164062 129.296875 L 167.164062 131.140625 L 164.667969 131.140625 C 162.53125 136.082031 161.332031 141.5 161.210938 147.160156 L 147.792969 147.160156 C 147.84375 140.660156 148.800781 134.59375 150.410156 129.296875 Z M 134.355469 129.296875 L 148.441406 129.296875 C 146.90625 134.667969 145.996094 140.710938 145.945312 147.183594 L 129.457031 147.183594 C 129.625 140.660156 131.378906 134.59375 134.355469 129.296875 Z M 148.441406 166.917969 L 134.355469 166.917969 C 131.378906 161.546875 129.625 155.503906 129.457031 149.03125 L 145.921875 149.03125 C 145.996094 155.457031 146.882812 161.570312 148.441406 166.917969 Z M 165.480469 166.917969 L 150.410156 166.917969 C 148.828125 161.546875 147.867188 155.503906 147.820312 149.03125 L 167.164062 149.03125 L 167.164062 150.875 L 161.257812 150.875 C 161.617188 156.582031 163.105469 162.003906 165.480469 166.917969 Z M 170.859375 166.917969 L 169.011719 166.917969 L 169.011719 149.03125 L 188.332031 149.03125 C 188.332031 149.605469 188.332031 150.253906 188.28125 150.875 L 170.859375 150.875 Z M 189.601562 166.917969 L 187.683594 166.917969 C 189.21875 161.546875 190.128906 155.457031 190.179688 149.03125 L 206.640625 149.03125 C 206.59375 149.605469 206.59375 150.253906 206.546875 150.875 L 192.003906 150.875 C 191.835938 155.601562 191.257812 160.371094 190.082031 165.046875 C 189.960938 165.429688 189.820312 166.125 189.601562 166.917969 Z M 187.105469 168.789062 L 200.667969 168.789062 C 200.234375 169.363281 199.828125 170.011719 199.394531 170.632812 L 188.449219 170.632812 C 187.660156 172.914062 186.699219 175.140625 185.523438 177.324219 C 184.730469 178.8125 183.769531 180.34375 182.761719 181.734375 C 181.921875 182.574219 181.011719 183.269531 180.097656 183.871094 C 180.410156 184.039062 180.675781 184.230469 181.011719 184.445312 C 179.425781 184.972656 177.769531 185.453125 176.066406 185.835938 C 179.042969 183.703125 181.707031 180.539062 183.867188 176.4375 C 185.136719 174.136719 186.195312 171.546875 187.105469 168.789062 Z M 168.988281 168.789062 L 185.113281 168.789062 C 184.898438 169.363281 184.683594 170.011719 184.464844 170.632812 L 170.808594 170.632812 L 170.808594 175.308594 C 172.828125 177.804688 175.105469 180.035156 177.601562 182 C 175.011719 184.710938 172.035156 186.339844 168.9375 186.628906 L 168.9375 168.789062 Z M 150.988281 168.789062 L 167.136719 168.789062 L 167.136719 186.628906 C 162.050781 186.148438 157.371094 182 153.914062 175.597656 C 152.785156 173.511719 151.777344 171.234375 150.988281 168.789062 Z M 135.480469 168.789062 L 149.019531 168.789062 C 149.929688 171.546875 151.035156 174.160156 152.257812 176.4375 C 154.441406 180.511719 157.082031 183.703125 160.058594 185.835938 C 152.617188 184.253906 145.96875 180.539062 140.785156 175.382812 C 138.769531 173.34375 137.019531 171.160156 135.480469 168.789062 Z M 168.097656 107.691406 C 156.890625 107.691406 146.785156 112.199219 139.464844 119.539062 C 132.144531 126.875 127.609375 136.945312 127.609375 148.09375 C 127.609375 159.246094 132.121094 169.386719 139.464844 176.652344 C 146.785156 183.964844 156.890625 188.496094 168.097656 188.496094 C 179.257812 188.496094 189.339844 183.988281 196.683594 176.652344 C 204.003906 169.386719 208.539062 159.246094 208.539062 148.09375 C 208.539062 136.945312 204.027344 126.875 196.683594 119.539062 C 189.339844 112.199219 179.234375 107.691406 168.097656 107.691406 Z M 200.640625 191.136719 L 200.640625 204.609375 L 220.945312 187.996094 C 237.050781 181.351562 247.609375 165.597656 247.609375 148.09375 C 247.609375 124.261719 228.265625 104.886719 204.363281 104.886719 C 197.449219 104.886719 190.921875 106.542969 185.136719 109.394531 C 189.867188 111.527344 194.210938 114.429688 198.003906 118.195312 C 206.066406 126.25 210.386719 136.441406 210.386719 148.070312 C 210.386719 159.316406 205.921875 169.988281 198.003906 177.949219 C 194.234375 181.710938 189.867188 184.683594 185.136719 186.746094 C 189.867188 189.121094 195.121094 190.65625 200.640625 191.136719 Z M 200.640625 191.136719 " fill-opacity="1" fill-rule="nonzero"/></g><g fill="#141414" fill-opacity="1"><g transform="translate(100.318553, 246.014395)"><g><path d="M 19.5 -6.640625 C 20.613281 -6.640625 21.695312 -6.804688 22.75 -7.140625 C 23.8125 -7.484375 24.585938 -7.8125 25.078125 -8.125 L 25.828125 -8.640625 L 28.953125 -2.390625 C 28.847656 -2.304688 28.703125 -2.195312 28.515625 -2.0625 C 28.335938 -1.9375 27.914062 -1.695312 27.25 -1.34375 C 26.582031 -1 25.867188 -0.695312 25.109375 -0.4375 C 24.359375 -0.175781 23.367188 0.0546875 22.140625 0.265625 C 20.921875 0.484375 19.660156 0.59375 18.359375 0.59375 C 15.367188 0.59375 12.53125 -0.140625 9.84375 -1.609375 C 7.164062 -3.085938 5.003906 -5.113281 3.359375 -7.6875 C 1.722656 -10.269531 0.90625 -13.0625 0.90625 -16.0625 C 0.90625 -18.320312 1.382812 -20.492188 2.34375 -22.578125 C 3.3125 -24.660156 4.59375 -26.441406 6.1875 -27.921875 C 7.789062 -29.410156 9.660156 -30.597656 11.796875 -31.484375 C 13.929688 -32.367188 16.117188 -32.8125 18.359375 -32.8125 C 20.441406 -32.8125 22.363281 -32.5625 24.125 -32.0625 C 25.882812 -31.570312 27.128906 -31.082031 27.859375 -30.59375 L 28.953125 -29.84375 L 25.828125 -23.59375 C 25.640625 -23.75 25.363281 -23.9375 25 -24.15625 C 24.632812 -24.382812 23.90625 -24.679688 22.8125 -25.046875 C 21.71875 -25.410156 20.613281 -25.59375 19.5 -25.59375 C 17.726562 -25.59375 16.140625 -25.304688 14.734375 -24.734375 C 13.328125 -24.160156 12.210938 -23.40625 11.390625 -22.46875 C 10.566406 -21.53125 9.941406 -20.519531 9.515625 -19.4375 C 9.085938 -18.351562 8.875 -17.253906 8.875 -16.140625 C 8.875 -13.691406 9.789062 -11.492188 11.625 -9.546875 C 13.457031 -7.609375 16.082031 -6.640625 19.5 -6.640625 Z M 19.5 -6.640625 "/></g></g></g><g fill="#141414" fill-opacity="1"><g transform="translate(129.733968, 246.014395)"><g><path d="M 2.34375 0 L 2.34375 -33.59375 L 9.265625 -33.59375 L 9.265625 -17.9375 L 9.34375 -17.9375 C 11.132812 -19.726562 13.046875 -20.625 15.078125 -20.625 C 16.066406 -20.625 17.050781 -20.492188 18.03125 -20.234375 C 19.007812 -19.972656 19.945312 -19.566406 20.84375 -19.015625 C 21.738281 -18.472656 22.46875 -17.703125 23.03125 -16.703125 C 23.59375 -15.703125 23.875 -14.535156 23.875 -13.203125 L 23.875 0 L 16.953125 0 L 16.953125 -11.328125 C 16.953125 -12.367188 16.617188 -13.28125 15.953125 -14.0625 C 15.296875 -14.84375 14.429688 -15.234375 13.359375 -15.234375 C 12.316406 -15.234375 11.375 -14.828125 10.53125 -14.015625 C 9.6875 -13.210938 9.265625 -12.316406 9.265625 -11.328125 L 9.265625 0 Z M 2.34375 0 "/></g></g></g><g fill="#141414" fill-opacity="1"><g transform="translate(155.555465, 246.014395)"><g><path d="M 3.71875 -2.46875 C 1.84375 -4.519531 0.90625 -7.03125 0.90625 -10 C 0.90625 -12.96875 1.84375 -15.476562 3.71875 -17.53125 C 5.59375 -19.59375 7.972656 -20.625 10.859375 -20.625 C 13.515625 -20.625 15.703125 -19.789062 17.421875 -18.125 L 17.421875 -20.046875 L 24.34375 -20.046875 L 24.34375 0 L 17.5 0 L 17.5 -2.265625 L 17.421875 -2.265625 C 15.703125 -0.359375 13.515625 0.59375 10.859375 0.59375 C 7.972656 0.59375 5.59375 -0.425781 3.71875 -2.46875 Z M 9.59375 -13.40625 C 8.695312 -12.519531 8.25 -11.382812 8.25 -10 C 8.25 -8.625 8.675781 -7.5 9.53125 -6.625 C 10.394531 -5.75 11.53125 -5.3125 12.9375 -5.3125 C 14.289062 -5.3125 15.398438 -5.753906 16.265625 -6.640625 C 17.140625 -7.523438 17.578125 -8.644531 17.578125 -10 C 17.578125 -11.382812 17.128906 -12.519531 16.234375 -13.40625 C 15.335938 -14.289062 14.238281 -14.734375 12.9375 -14.734375 C 11.601562 -14.734375 10.488281 -14.289062 9.59375 -13.40625 Z M 9.59375 -13.40625 "/></g></g></g><g fill="#141414" fill-opacity="1"><g transform="translate(182.236377, 246.014395)"><g><path d="M 3.515625 -20.046875 L 3.515625 -27.5 L 10.4375 -27.5 L 10.4375 -20.046875 L 14.65625 -20.046875 L 14.65625 -14.765625 L 10.4375 -14.765625 L 10.4375 -8.40625 C 10.4375 -6.550781 10.957031 -5.625 12 -5.625 C 12.257812 -5.625 12.53125 -5.675781 12.8125 -5.78125 C 13.101562 -5.882812 13.328125 -5.988281 13.484375 -6.09375 L 13.71875 -6.25 L 15.4375 -0.671875 C 13.945312 0.171875 12.253906 0.59375 10.359375 0.59375 C 9.054688 0.59375 7.9375 0.363281 7 -0.09375 C 6.0625 -0.550781 5.347656 -1.164062 4.859375 -1.9375 C 4.378906 -2.707031 4.035156 -3.515625 3.828125 -4.359375 C 3.617188 -5.203125 3.515625 -6.109375 3.515625 -7.078125 L 3.515625 -14.765625 L 0.625 -14.765625 L 0.625 -20.046875 Z M 3.515625 -20.046875 "/></g></g></g><g fill="#141414" fill-opacity="1"><g transform="translate(197.666774, 246.014395)"><g><path d="M 2.34375 -32.234375 L 14.109375 -32.234375 C 17.390625 -32.234375 20.046875 -31.382812 22.078125 -29.6875 C 24.109375 -28 25.125 -25.539062 25.125 -22.3125 C 25.125 -19.082031 24.09375 -16.546875 22.03125 -14.703125 C 19.976562 -12.867188 17.335938 -11.953125 14.109375 -11.953125 L 9.6875 -11.953125 L 9.6875 0 L 2.34375 0 Z M 9.6875 -17.8125 L 11.765625 -17.8125 C 13.398438 -17.8125 14.742188 -18.144531 15.796875 -18.8125 C 16.859375 -19.476562 17.390625 -20.566406 17.390625 -22.078125 C 17.390625 -23.609375 16.859375 -24.707031 15.796875 -25.375 C 14.742188 -26.039062 13.398438 -26.375 11.765625 -26.375 L 9.6875 -26.375 Z M 9.6875 -17.8125 "/></g></g></g><g fill="#141414" fill-opacity="1"><g transform="translate(223.683591, 246.014395)"><g><path d="M 2.34375 -32.234375 L 11.6875 -32.234375 C 16.164062 -32.234375 19.992188 -30.703125 23.171875 -27.640625 C 26.347656 -24.578125 27.9375 -20.742188 27.9375 -16.140625 C 27.9375 -11.503906 26.351562 -7.65625 23.1875 -4.59375 C 20.019531 -1.53125 16.1875 0 11.6875 0 L 2.34375 0 Z M 9.6875 -6.5625 L 10.828125 -6.5625 C 13.503906 -6.5625 15.695312 -7.46875 17.40625 -9.28125 C 19.113281 -11.09375 19.976562 -13.363281 20 -16.09375 C 20 -18.832031 19.144531 -21.113281 17.4375 -22.9375 C 15.738281 -24.757812 13.535156 -25.671875 10.828125 -25.671875 L 9.6875 -25.671875 Z M 9.6875 -6.5625 "/></g></g></g><g fill="#141414" fill-opacity="1"><g transform="translate(252.513043, 246.014395)"><g><path d="M 20.984375 -32.234375 L 20.984375 -25.78125 L 9.6875 -25.78125 L 9.6875 -19.375 L 20.125 -19.375 L 20.125 -12.9375 L 9.6875 -12.9375 L 9.6875 0 L 2.34375 0 L 2.34375 -32.234375 Z M 20.984375 -32.234375 "/></g></g></g><g fill="#141414" fill-opacity="1"><g transform="translate(146.641034, 268.069647)"><g><path d="M 4.296875 -2 L 1.640625 -2 L 0.921875 0 L 0.078125 0 L 2.8125 -7.3125 L 3.203125 -7.3125 L 5.9375 0 L 5.03125 0 Z M 1.921875 -2.734375 L 4.046875 -2.734375 L 3.234375 -4.921875 L 2.984375 -6.015625 L 2.96875 -6.015625 L 2.71875 -4.90625 Z M 1.921875 -2.734375 "/></g></g></g><g fill="#141414" fill-opacity="1"><g transform="translate(155.841199, 268.069647)"><g><path d="M 1.0625 -7.203125 L 1.921875 -7.203125 L 1.921875 0 L 1.0625 0 Z M 1.0625 -7.203125 "/></g></g></g><g fill="#141414" fill-opacity="1"><g transform="translate(162.019595, 268.069647)"><g/></g></g><g fill="#141414" fill-opacity="1"><g transform="translate(167.951317, 268.069647)"><g><path d="M 0.875 -7.203125 L 4.796875 -7.203125 L 4.796875 -6.4375 L 1.734375 -6.4375 L 1.734375 -4.078125 L 4.53125 -4.078125 L 4.53125 -3.328125 L 1.734375 -3.328125 L 1.734375 -0.765625 L 4.84375 -0.765625 L 4.84375 0 L 0.875 0 Z M 0.875 -7.203125 "/></g></g></g><g fill="#141414" fill-opacity="1"><g transform="translate(176.647855, 268.069647)"><g><path d="M 2.65625 -3.65625 L 0.46875 -7.203125 L 1.5 -7.203125 L 2.96875 -4.765625 L 3.21875 -4.171875 L 3.46875 -4.765625 L 5 -7.203125 L 5.953125 -7.203125 L 3.6875 -3.734375 L 6.0625 0 L 5.0625 0 L 3.4375 -2.578125 L 3.15625 -3.203125 L 2.890625 -2.578125 L 1.21875 0 L 0.265625 0 Z M 2.65625 -3.65625 "/></g></g></g><g fill="#141414" fill-opacity="1"><g transform="translate(186.187206, 268.069647)"><g><path d="M 5.515625 -6.4375 L 3.28125 -6.4375 L 3.28125 0 L 2.421875 0 L 2.421875 -6.4375 L 0.1875 -6.4375 L 0.1875 -7.203125 L 5.515625 -7.203125 Z M 5.515625 -6.4375 "/></g></g></g><g fill="#141414" fill-opacity="1"><g transform="translate(195.079029, 268.069647)"><g><path d="M 0.875 -7.125 C 1.132812 -7.175781 1.429688 -7.210938 1.765625 -7.234375 C 2.109375 -7.265625 2.421875 -7.28125 2.703125 -7.28125 C 3.015625 -7.28125 3.3125 -7.242188 3.59375 -7.171875 C 3.882812 -7.109375 4.132812 -6.992188 4.34375 -6.828125 C 4.5625 -6.671875 4.734375 -6.46875 4.859375 -6.21875 C 4.992188 -5.96875 5.0625 -5.660156 5.0625 -5.296875 C 5.0625 -4.734375 4.90625 -4.273438 4.59375 -3.921875 C 4.289062 -3.578125 3.90625 -3.347656 3.4375 -3.234375 L 3.921875 -2.84375 L 5.71875 0 L 4.71875 0 L 2.734375 -3.109375 L 1.734375 -3.265625 L 1.734375 0 L 0.875 0 Z M 2.71875 -6.53125 C 2.632812 -6.53125 2.539062 -6.53125 2.4375 -6.53125 C 2.34375 -6.53125 2.25 -6.523438 2.15625 -6.515625 C 2.070312 -6.515625 1.988281 -6.507812 1.90625 -6.5 C 1.832031 -6.5 1.773438 -6.492188 1.734375 -6.484375 L 1.734375 -3.828125 L 2.53125 -3.828125 C 3 -3.828125 3.382812 -3.941406 3.6875 -4.171875 C 4 -4.410156 4.15625 -4.773438 4.15625 -5.265625 C 4.15625 -5.628906 4.03125 -5.929688 3.78125 -6.171875 C 3.53125 -6.410156 3.175781 -6.53125 2.71875 -6.53125 Z M 2.71875 -6.53125 "/></g></g></g><g fill="#141414" fill-opacity="1"><g transform="translate(204.381977, 268.069647)"><g><path d="M 4.296875 -2 L 1.640625 -2 L 0.921875 0 L 0.078125 0 L 2.8125 -7.3125 L 3.203125 -7.3125 L 5.9375 0 L 5.03125 0 Z M 1.921875 -2.734375 L 4.046875 -2.734375 L 3.234375 -4.921875 L 2.984375 -6.015625 L 2.96875 -6.015625 L 2.71875 -4.90625 Z M 1.921875 -2.734375 "/></g></g></g><g fill="#141414" fill-opacity="1"><g transform="translate(213.582144, 268.069647)"><g><path d="M 5.484375 -0.296875 C 5.273438 -0.140625 5.007812 -0.03125 4.6875 0.03125 C 4.375 0.09375 4.039062 0.125 3.6875 0.125 C 3.257812 0.125 2.851562 0.0507812 2.46875 -0.09375 C 2.09375 -0.238281 1.765625 -0.460938 1.484375 -0.765625 C 1.203125 -1.066406 0.976562 -1.453125 0.8125 -1.921875 C 0.65625 -2.390625 0.578125 -2.945312 0.578125 -3.59375 C 0.578125 -4.269531 0.664062 -4.84375 0.84375 -5.3125 C 1.03125 -5.78125 1.269531 -6.160156 1.5625 -6.453125 C 1.863281 -6.753906 2.195312 -6.972656 2.5625 -7.109375 C 2.9375 -7.242188 3.316406 -7.3125 3.703125 -7.3125 C 4.109375 -7.3125 4.441406 -7.289062 4.703125 -7.25 C 4.960938 -7.207031 5.1875 -7.148438 5.375 -7.078125 L 5.171875 -6.328125 C 4.835938 -6.484375 4.367188 -6.5625 3.765625 -6.5625 C 3.484375 -6.5625 3.203125 -6.507812 2.921875 -6.40625 C 2.648438 -6.300781 2.40625 -6.128906 2.1875 -5.890625 C 1.976562 -5.660156 1.804688 -5.359375 1.671875 -4.984375 C 1.546875 -4.609375 1.484375 -4.144531 1.484375 -3.59375 C 1.484375 -3.101562 1.539062 -2.671875 1.65625 -2.296875 C 1.78125 -1.929688 1.953125 -1.625 2.171875 -1.375 C 2.390625 -1.125 2.644531 -0.9375 2.9375 -0.8125 C 3.226562 -0.695312 3.546875 -0.640625 3.890625 -0.640625 C 4.191406 -0.640625 4.457031 -0.671875 4.6875 -0.734375 C 4.914062 -0.796875 5.113281 -0.875 5.28125 -0.96875 Z M 5.484375 -0.296875 "/></g></g></g><g fill="#141414" fill-opacity="1"><g transform="translate(222.638423, 268.069647)"><g><path d="M 5.515625 -6.4375 L 3.28125 -6.4375 L 3.28125 0 L 2.421875 0 L 2.421875 -6.4375 L 0.1875 -6.4375 L 0.1875 -7.203125 L 5.515625 -7.203125 Z M 5.515625 -6.4375 "/></g></g></g></svg>